<svg width="21" height="22" viewBox="0 0 21 22" fill="none" xmlns="http://www.w3.org/2000/svg">
<path d="M20.9167 20.1895L15.2527 14.5255C16.6138 12.8915 17.2925 10.7957 17.1477 8.67395C17.0029 6.55225 16.0457 4.56807 14.4751 3.13416C12.9046 1.70026 10.8418 0.927031 8.71568 0.97534C6.58959 1.02365 4.56398 1.88977 3.06022 3.39353C1.55646 4.89729 0.690336 6.92291 0.642027 9.04899C0.593718 11.1751 1.36694 13.2379 2.80085 14.8085C4.23476 16.379 6.21894 17.3362 8.34064 17.481C10.4623 17.6259 12.5582 16.9471 14.1922 15.586L19.8562 21.25L20.9167 20.1895ZM2.16671 9.25003C2.16671 7.915 2.56259 6.60996 3.30429 5.49993C4.04599 4.38989 5.1002 3.52473 6.3336 3.01384C7.567 2.50295 8.9242 2.36927 10.2336 2.62973C11.5429 2.89018 12.7457 3.53305 13.6897 4.47706C14.6337 5.42106 15.2766 6.62379 15.537 7.93317C15.7975 9.24254 15.6638 10.5997 15.1529 11.8331C14.642 13.0665 13.7768 14.1207 12.6668 14.8624C11.5568 15.6041 10.2517 16 8.91671 16C7.12711 15.998 5.41138 15.2862 4.14593 14.0208C2.88049 12.7554 2.1687 11.0396 2.16671 9.25003Z" fill="black"/>
</svg>
