<svg width="23" height="22" viewBox="0 0 23 22" fill="none" xmlns="http://www.w3.org/2000/svg">
<path d="M20.4469 11.3692C20.2728 11.1746 20.1768 10.9244 20.1768 10.6653C20.1768 10.4063 20.2728 10.156 20.4469 9.96142L21.8366 8.42563C21.9897 8.25783 22.0848 8.0467 22.1082 7.82252C22.1316 7.59834 22.0822 7.37264 21.9669 7.1778L19.7954 3.48763C19.6813 3.29302 19.5076 3.13875 19.299 3.04683C19.0904 2.9549 18.8575 2.93001 18.6337 2.9757L16.5925 3.38098C16.3328 3.4337 16.0624 3.39121 15.8324 3.26153C15.6024 3.13185 15.4286 2.92396 15.3439 2.67708L14.6816 0.725342C14.6088 0.513509 14.47 0.329519 14.2849 0.199379C14.0999 0.0692385 13.8778 -0.00046951 13.6502 0.000107651H9.30728C9.07052 -0.0120315 8.83622 0.0522887 8.64017 0.183244C8.44412 0.3142 8.2971 0.504593 8.22156 0.725342L7.61355 2.67708C7.52886 2.92396 7.35511 3.13185 7.12509 3.26153C6.89507 3.39121 6.62468 3.4337 6.36496 3.38098L4.2695 2.9757C4.0573 2.94625 3.84097 2.97914 3.64776 3.07024C3.45455 3.16134 3.29311 3.30657 3.18377 3.48763L1.01232 7.1778C0.894146 7.37046 0.841012 7.5949 0.860512 7.81902C0.880013 8.04313 0.971148 8.25546 1.12089 8.42563L2.49976 9.96142C2.67383 10.156 2.76982 10.4063 2.76982 10.6653C2.76982 10.9244 2.67383 11.1746 2.49976 11.3692L1.12089 12.905C0.971148 13.0752 0.880013 13.2875 0.860512 13.5116C0.841012 13.7357 0.894146 13.9602 1.01232 14.1529L3.18377 17.843C3.29788 18.0376 3.47162 18.1919 3.68023 18.2838C3.88883 18.3757 4.12165 18.4006 4.3455 18.3549L6.38667 17.9497C6.6464 17.8969 6.91678 17.9394 7.14681 18.0691C7.37683 18.1988 7.55058 18.4067 7.63526 18.6536L8.29756 20.6053C8.3731 20.8261 8.52013 21.0164 8.71618 21.1474C8.91223 21.2784 9.14652 21.3427 9.38328 21.3305H13.7262C13.9538 21.3311 14.1759 21.2614 14.3609 21.1313C14.546 21.0011 14.6848 20.8171 14.7576 20.6053L15.4199 18.6536C15.5046 18.4067 15.6784 18.1988 15.9084 18.0691C16.1384 17.9394 16.4088 17.8969 16.6685 17.9497L18.7097 18.3549C18.9335 18.4006 19.1664 18.3757 19.375 18.2838C19.5836 18.1919 19.7573 18.0376 19.8714 17.843L22.0429 14.1529C22.1582 13.958 22.2076 13.7323 22.1842 13.5081C22.1608 13.284 22.0657 13.0728 21.9126 12.905L20.4469 11.3692ZM18.8291 12.7984L19.6977 13.7582L18.308 16.1259L17.0268 15.8699C16.2449 15.7129 15.4314 15.8434 14.7409 16.2366C14.0504 16.6298 13.5309 17.2584 13.2811 18.003L12.8685 19.1975H10.089L9.69815 17.9817C9.44827 17.2371 8.92878 16.6085 8.23828 16.2153C7.54778 15.8221 6.73435 15.6916 5.95238 15.8486L4.67122 16.1046L3.25977 13.7476L4.12836 12.7877C4.66249 12.2011 4.95778 11.4417 4.95778 10.6547C4.95778 9.86764 4.66249 9.10823 4.12836 8.52162L3.25977 7.56175L4.64951 5.2154L5.93067 5.47136C6.71263 5.62838 7.52607 5.4979 8.21657 5.10469C8.90706 4.71148 9.42656 4.08292 9.67643 3.33832L10.089 2.13315H12.8685L13.2811 3.34899C13.5309 4.09359 14.0504 4.72215 14.7409 5.11536C15.4314 5.50856 16.2449 5.63904 17.0268 5.48203L18.308 5.22606L19.6977 7.59374L18.8291 8.55361C18.301 9.13888 18.0094 9.89389 18.0094 10.676C18.0094 11.4581 18.301 12.2131 18.8291 12.7984ZM11.4787 6.39924C10.6198 6.39924 9.78014 6.64944 9.06595 7.1182C8.35176 7.58697 7.79512 8.25324 7.46641 9.03276C7.13771 9.81229 7.0517 10.6701 7.21927 11.4976C7.38685 12.3251 7.80047 13.0853 8.40784 13.6819C9.0152 14.2785 9.78904 14.6848 10.6315 14.8494C11.4739 15.014 12.3471 14.9296 13.1407 14.6067C13.9343 14.2838 14.6125 13.737 15.0897 13.0354C15.5669 12.3339 15.8217 11.5091 15.8217 10.6653C15.8217 9.53389 15.3641 8.44879 14.5496 7.64874C13.7352 6.8487 12.6306 6.39924 11.4787 6.39924ZM11.4787 12.7984C11.0493 12.7984 10.6294 12.6733 10.2723 12.4389C9.91525 12.2045 9.63693 11.8714 9.47258 11.4816C9.30822 11.0918 9.26522 10.663 9.34901 10.2492C9.43279 9.83542 9.6396 9.45535 9.94329 9.15703C10.247 8.85872 10.6339 8.65557 11.0551 8.57327C11.4763 8.49096 11.9129 8.5332 12.3097 8.69465C12.7065 8.85609 13.0456 9.12949 13.2842 9.48027C13.5228 9.83105 13.6502 10.2434 13.6502 10.6653C13.6502 11.231 13.4214 11.7736 13.0142 12.1736C12.607 12.5736 12.0546 12.7984 11.4787 12.7984Z" fill="black"/>
</svg>
