<svg width="35" height="32" viewBox="0 0 35 32" fill="none" xmlns="http://www.w3.org/2000/svg">
<path d="M34.8036 29.6625C32.2677 25.571 28.3598 22.6372 23.7992 21.2464C26.0551 19.9931 27.8078 18.0834 28.7881 15.8105C29.7684 13.5376 29.9222 11.0272 29.2258 8.66485C28.5294 6.3025 27.0213 4.21881 24.9331 2.73377C22.845 1.24873 20.2922 0.444458 17.6668 0.444458C15.0415 0.444458 12.4887 1.24873 10.4006 2.73377C8.31239 4.21881 6.8043 6.3025 6.10789 8.66485C5.41147 11.0272 5.56522 13.5376 6.54554 15.8105C7.52586 18.0834 9.27854 19.9931 11.5344 21.2464C6.97382 22.6357 3.06592 25.5695 0.530034 29.6625C0.437038 29.804 0.375355 29.9615 0.348623 30.1256C0.321892 30.2897 0.330653 30.4572 0.374391 30.6181C0.418129 30.779 0.495957 30.9301 0.603283 31.0625C0.710609 31.1949 0.845259 31.3059 0.999289 31.3889C1.15332 31.4719 1.32361 31.5253 1.50011 31.5459C1.67661 31.5666 1.85575 31.554 2.02696 31.5089C2.19816 31.4639 2.35797 31.3873 2.49695 31.2837C2.63593 31.1801 2.75126 31.0515 2.83614 30.9057C5.97311 25.8461 11.5178 22.8252 17.6668 22.8252C23.8159 22.8252 29.3605 25.8461 32.4975 30.9057C32.5824 31.0515 32.6977 31.1801 32.8367 31.2837C32.9757 31.3873 33.1355 31.4639 33.3067 31.5089C33.4779 31.554 33.657 31.5666 33.8335 31.5459C34.0101 31.5253 34.1803 31.4719 34.3344 31.3889C34.4884 31.3059 34.6231 31.1949 34.7304 31.0625C34.8377 30.9301 34.9155 30.779 34.9593 30.6181C35.003 30.4572 35.0118 30.2897 34.985 30.1256C34.9583 29.9615 34.8966 29.804 34.8036 29.6625ZM8.34249 11.637C8.34249 9.91587 8.88936 8.23343 9.91393 6.80239C10.9385 5.37136 12.3948 4.256 14.0986 3.59737C15.8024 2.93874 17.6772 2.76641 19.4859 3.10217C21.2947 3.43794 22.9561 4.26673 24.2601 5.48372C25.5642 6.70072 26.4522 8.25126 26.812 9.93929C27.1718 11.6273 26.9871 13.377 26.2814 14.9671C25.5757 16.5571 24.3805 17.9162 22.8472 18.8724C21.3138 19.8286 19.511 20.3389 17.6668 20.3389C15.1947 20.3365 12.8245 19.4189 11.0765 17.7875C9.32837 16.1561 8.34514 13.9441 8.34249 11.637Z" fill="black"/>
</svg>
